PathFileType	4	(X/Y/Z)	Patient4_TMGait_0pt6_02_right_16.trc.trc
DataRate	CameraRate	NumFrames	NumMarkers	Units	OrigDataRate	OrigDataStartFrame	OrigNumFrames
82.352941176471	82.352941176471	6	33	mm	82.352941176471	1	       141
Frame#	Time	Sacral			L.Shoulder			Chest			R.Shoulder			Neck			R.ASIS			L.ASIS			R.Thigh.Superior			R.Thigh.Lateral			R.Thigh.Inferior			R.Patella			L.Thigh.Superior			L.Thigh.Lateral			L.Thigh.Inferior			L.Patella			L.Shank.Superior			L.Shank.Lateral			L.Shank.Inferior			R.Shank.Superior			R.Shank.Lateral			R.Shank.Inferior			R.Heel			R.Midfoot.Superior			R.Midfoot.Lateral			R.Toe			L.Heel			L.Midfoot.Lateral			L.Midfoot.Superior			L.Toe			L.Elbow			L.Wrist			R.Elbow			R.Wrist			
		X1	Y1	Z1	X2	Y2	Z2	X3	Y3	Z3	X4	Y4	Z4	X5	Y5	Z5	X6	Y6	Z6	X7	Y7	Z7	X8	Y8	Z8	X9	Y9	Z9	X10	Y10	Z10	X11	Y11	Z11	X12	Y12	Z12	X13	Y13	Z13	X14	Y14	Z14	X15	Y15	Z15	X16	Y16	Z16	X17	Y17	Z17	X18	Y18	Z18	X19	Y19	Z19	X20	Y20	Z20	X21	Y21	Z21	X22	Y22	Z22	X23	Y23	Z23	X24	Y24	Z24	X25	Y25	Z25	X26	Y26	Z26	X27	Y27	Z27	X28	Y28	Z28	X29	Y29	Z29	X30	Y30	Z30	X31	Y31	Z31	X32	Y32	Z32	X33	Y33	Z33	

1	19.070000000000	776.120628450802	1015.475322750389	439.306902670604	967.590634298675	1440.513580606478	261.173978552458	1068.715425714986	1363.866276315451	419.428953936856	989.258419415520	1438.621865317962	594.644543052168	967.419072166937	1498.799185393214	413.580435290598	1002.712405346783	948.328589182285	555.815211014238	988.299747065450	962.843084694511	281.957237047978	1089.877192328446	786.038418986650	521.800834137772	1061.409879792960	665.965202196616	599.344553398326	1148.062055664604	629.277457818161	515.156815282104	1172.778369293015	515.031246504784	537.782982807394	1032.322480289190	749.380916686862	315.186586658775	937.404760600730	636.507404901941	261.415605079358	1017.543215269799	556.917030861789	327.180857111424	1014.254584985735	487.417559447026	340.557319083391	986.793283655323	416.766101480065	333.648235023087	895.505533379972	302.511148795552	287.065277878876	943.777465964600	192.821518012385	361.576193952651	1095.717928874440	439.327139532965	548.244104081088	973.882810038408	402.230461799888	609.599943460715	958.807496470173	291.652782128247	564.166472000104	759.594422749662	241.048758221835	536.779412870545	921.843559092751	165.770738018503	581.005906936102	811.039507194143	174.538762850368	609.963739353904	972.682066002164	44.717025014693	604.201478426093	813.407241961913	38.582634834320	409.956789406305	885.046009622117	35.813310070401	327.058424900730	969.341906117146	96.218631216897	351.606684754741	1097.087178149311	42.157506621687	319.488483429846	947.148316468094	1093.294339599344	124.308446865219	1117.707887530653	894.602458991824	125.859518819085	943.450328935175	1086.893227501936	700.553720544573	1050.868503815311	847.357941981413	695.799329432102	
2	19.082142857143	775.779458896153	1016.067510918577	438.097807097440	970.266939872439	1440.927397163332	260.664895843736	1069.522194182358	1363.850692765701	419.853106440592	988.663770780670	1438.702919780796	594.400763281546	968.510760250822	1499.115307231647	413.114745645084	1001.656050537372	949.217249564737	555.832696350638	989.000081721360	962.646713828133	281.371478454610	1090.475098822890	789.514530164001	521.956271916245	1063.442242619004	668.752380828988	599.339402396405	1150.967477672795	633.483989230592	515.496967666902	1177.872540064760	520.754311373809	538.308539680314	1029.710654177915	748.339905798207	315.721744102743	933.538050044028	636.653772067145	261.050642938483	1011.842142565732	556.056325301297	327.410634636149	1007.696806628761	486.925884866104	340.546872334192	980.217891280654	416.589083113016	333.511316868962	888.647242190593	302.645568787532	286.799620614254	936.323822074316	192.806991645527	361.477110729777	1104.445862574433	442.574633820145	548.569445689451	985.245775870156	399.045401615437	609.798954151823	976.104164058791	288.289488798071	564.173357693096	780.423385973149	226.758960206714	536.985931974412	946.224543526551	161.263444667884	580.753706070125	835.646280002836	163.626829601551	610.122923563629	1003.777987731029	43.912473964055	603.753364776348	805.694655447206	38.727521370360	409.868028099641	877.344520653299	35.825984373729	327.021031786746	961.688892786236	96.224430603165	351.512615247157	1089.399007804619	42.029173592408	319.449281504373	953.615928715746	1094.456522806359	122.403299319878	1132.955032071317	905.092185047858	123.469118838061	934.829325338272	1088.399300295973	699.921781043000	1023.759326078730	843.800920190801	699.886087017204	
3	19.094285714286	775.472494936091	1016.636850186659	436.920273958362	972.907266947105	1441.313912293705	260.186429971468	1070.328471172792	1363.817449737930	420.285639264939	988.088530086346	1438.763823255488	594.156294259247	969.600973946835	1499.408860370316	412.677216499835	1000.636643937262	950.058389132788	555.866800326395	989.626954369321	962.427978281357	280.864799290086	1091.006229644232	792.832495877716	522.118096492997	1065.338523525809	671.386490949241	599.355229102363	1153.662668087284	637.453682445683	515.839701535454	1182.668145546074	526.271956896466	538.829225095285	1027.157683678570	747.300317574559	316.251015319249	929.721813540829	636.792203568707	260.696660978612	1006.227116387897	555.203250462803	327.622375136004	1001.232238575734	486.440991594536	340.529870760601	973.731626054020	416.410144752185	333.378222510342	881.875331607709	302.778136335762	286.542129025114	928.959893727883	192.791566338688	361.382573467236	1112.923698633999	445.671738888437	548.903159245158	996.502393643209	395.702098679102	610.076417829302	993.327834401062	284.834290882679	564.258168945938	801.384730998608	212.332020815407	537.316786233208	970.606396598583	156.747371215519	580.615164067705	860.353008998122	152.691731571323	610.422974067037	1034.861419876659	43.242766362621	603.465624446713	798.066418750359	38.869381143755	409.780397236180	869.724523459539	35.838493276701	326.986299059857	954.117134035240	96.227912921176	351.424060804260	1081.791250891871	41.899736749032	319.410488731667	959.981660065341	1095.597440914142	120.544091052232	1147.910624445845	915.538527933661	121.162815609973	926.210591711028	1089.962279891919	699.344289172729	997.174567090515	840.631031663287	703.782972794147	
4	19.106428571429	775.237839804288	1017.151938742441	435.809423257997	975.474896715560	1441.635780675466	259.771601795359	1071.138748473652	1363.742827826712	420.736592938927	987.564216851108	1438.783069337689	593.919421970164	970.691148320037	1499.648713772440	412.296514344750	999.703757629690	950.792870219205	555.936908287219	990.126948190447	962.155417147983	280.509554245408	1091.384237511151	795.771279737210	522.309454415116	1066.911711636235	673.682334329909	599.438584677255	1155.884186891577	640.899389773105	516.204828800586	1186.819102680597	531.350714714938	539.343643769800	1024.711314516236	746.254410483979	316.772569681174	925.996768604640	636.908296459744	260.366333583953	1000.765094261144	554.355426476273	327.802582102980	994.930856407846	485.958306054291	340.500525714075	967.394245998840	416.218864860254	333.253501362725	875.238052705363	302.906686441996	286.300534475918	921.728390394590	192.769784005724	361.295939968687	1120.882833485763	448.469446811422	549.268067802497	1007.579087813736	392.054816167010	610.519900842105	1010.453186044966	281.249841171365	564.490383229437	822.740692871044	197.690001216151	537.875983009407	995.068954280223	152.305070795082	580.679589794809	885.377902430691	141.781879201733	610.970570470350	1065.987973123522	42.974180940557	603.448140635719	790.549461155489	39.007354794113	409.694496399427	862.211520777533	35.850503534195	326.956437731240	946.652399299701	96.225593816765	351.345493810001	1074.288618414877	41.768464806726	319.372119446704	966.176469842571	1096.692743124703	118.772309967520	1162.329728307552	925.937084066997	119.026271601876	917.576791970649	1091.671944513801	698.873670704391	971.539355870811	838.228738975807	707.322562640499	
5	19.118571428571	775.108189755715	1017.584872675465	434.795012426192	977.939639368286	1441.858401660522	259.447004693377	1071.958791633334	1363.605308701927	421.213818741489	987.122026436903	1438.744296162845	593.701748344543	971.784630914275	1499.806374943624	411.993794480402	998.902920896511	951.367224736806	556.060452184378	990.489712882245	961.828193890821	280.358407546751	1091.532302861201	798.123738570078	522.557007192459	1067.972479465414	675.466790803126	599.622768024343	1157.395038658974	643.562961052130	516.615281093704	1190.028903686472	535.787342687296	539.850886714545	1022.404055496399	745.190508245477	317.282259044450	922.390842479197	636.988245992361	260.069874983657	995.502399904586	553.506517737880	327.940866225210	988.840440238958	485.467946410234	340.453944117668	961.242167403925	416.002495288402	333.141036338842	868.759578090340	303.029196001511	286.080641721575	914.646520174406	192.735026099835	361.218756736206	1128.098928244712	450.848178779965	549.687012447369	1018.435544155989	387.994429486537	611.205444926900	1027.483612335743	277.533580904047	564.921986276828	844.769619846656	182.798321991900	538.741634530252	1019.715002818581	148.052675454615	581.008093637402	910.955900196797	130.976780420208	611.838557886368	1097.234550935459	43.394770814168	603.770546426636	783.141983925637	39.141280670467	409.610905098359	854.803730344413	35.861263009505	326.933142043356	939.293115615255	96.214293461808	351.280101139418	1066.888574018942	41.634478828290	319.334127889625	972.159484790037	1097.720267926554	117.118257418992	1176.035279411585	936.298040992283	117.129481835032	908.905607829147	1093.615426939959	698.551351577543	947.154492319741	836.880219170153	710.380498269316	
6	19.130714285714	775.107444576884	1017.912576681495	433.901175542358	980.276126333048	1441.952638596381	259.230803178694	1072.793613100613	1363.387900199010	421.721510393264	986.790990850004	1438.637845405302	593.518028810789	972.883736019220	1499.858063979557	411.781742251828	998.273666511952	951.738022254872	556.251401308192	990.751876104430	961.472744243962	280.435391860099	1091.390628538833	799.711561715255	522.888867668720	1068.349877479147	676.594926423555	599.928906601815	1158.005804535365	645.237005392615	517.095149724186	1192.074268884156	539.421486352587	540.350329417670	1020.253422348431	744.095920604347	317.774199164568	918.922835148998	637.019714530703	259.814882355847	990.468759913746	552.647971227732	328.031676831314	982.991483710083	484.955821956489	340.387426975491	955.294496441828	415.747544093985	333.043994878042	862.447369710041	303.143851188000	285.886187922294	907.713587305964	192.680220555061	361.150959137139	1134.401191364011	452.726405364584	550.180704485152	1029.046270415724	383.470143404928	612.186961370435	1044.415323548300	273.728706239321	565.579338953850	867.689930117840	167.705910776145	539.952529408083	1044.607759583614	144.138860871394	581.622909840388	937.260008470737	120.403821822695	613.052351494207	1128.624934465418	44.783822518434	604.447838606928	775.824693856093	39.271500113878	409.530219412138	847.482966529306	35.869832505157	326.917275829493	932.021264941418	96.191524574789	351.229339607004	1059.572330526151	41.497143708069	319.296494378427	977.912320010565	1098.660113994912	115.601371851057	1188.912687426370	946.625713703588	115.523132518861	900.190229536322	1095.864801852207	698.403243282474	924.205745814928	836.749526859497	712.885969253428	
